/* XPM */
static char * among3_xpm[] = {
"41 50 206 2",
"  	c #BCB700",
". 	c #010101",
"+ 	c #020101",
"@ 	c #330202",
"# 	c #9D0C0C",
"$ 	c #BF1010",
"% 	c #C51111",
"& 	c #B40F0F",
"* 	c #830809",
"= 	c #0D0101",
"- 	c #2A0202",
"; 	c #AE0E0E",
"> 	c #3F0303",
", 	c #9B0C0C",
"' 	c #B30F0F",
") 	c #2D0202",
"! 	c #280202",
"~ 	c #C21111",
"{ 	c #BE1010",
"] 	c #930B0B",
"^ 	c #730707",
"/ 	c #5A0404",
"( 	c #2D0303",
"_ 	c #030101",
": 	c #280303",
"< 	c #5A0606",
"[ 	c #B50F0F",
"} 	c #2F0202",
"| 	c #090F11",
"1 	c #415862",
"2 	c #4D6772",
"3 	c #5E7D8B",
"4 	c #638392",
"5 	c #577481",
"6 	c #2B3B42",
"7 	c #760909",
"8 	c #700606",
"9 	c #779DAE",
"0 	c #96C5DA",
"a 	c #98C7DC",
"b 	c #9ECADD",
"c 	c #D0E4ED",
"d 	c #DBEAF0",
"e 	c #D9E9F0",
"f 	c #DAE9F0",
"g 	c #C3DCE7",
"h 	c #7595A3",
"i 	c #810A0B",
"j 	c #580404",
"k 	c #3A4F57",
"l 	c #93C0D5",
"m 	c #FCFEFD",
"n 	c #E2EEF3",
"o 	c #6E91A0",
"p 	c #830B0B",
"q 	c #490404",
"r 	c #465F68",
"s 	c #7BA2B3",
"t 	c #A6CDE0",
"u 	c #D8E8EF",
"v 	c #E7F1F5",
"w 	c #EDF5F7",
"x 	c #ECF4F7",
"y 	c #D3E5EE",
"z 	c #415761",
"A 	c #300303",
"B 	c #800B0B",
"C 	c #3E0303",
"D 	c #4A646E",
"E 	c #4D6872",
"F 	c #86B0C2",
"G 	c #94C1D6",
"H 	c #506A76",
"I 	c #440303",
"J 	c #800808",
"K 	c #6A0606",
"L 	c #3E0404",
"M 	c #780A0A",
"N 	c #520404",
"O 	c #4A646F",
"P 	c #769CAC",
"Q 	c #93C1D5",
"R 	c #97C6DA",
"S 	c #8DBACD",
"T 	c #84ADBF",
"U 	c #7296A6",
"V 	c #506C77",
"W 	c #31444B",
"X 	c #1B0202",
"Y 	c #BC1010",
"Z 	c #A70D0D",
"` 	c #4D0505",
" .	c #770A0A",
"..	c #6F0606",
"+.	c #33464D",
"@.	c #526E7A",
"#.	c #516D78",
"$.	c #27363C",
"%.	c #9D0B0B",
"&.	c #9F0C0C",
"*.	c #05080A",
"=.	c #405760",
"-.	c #465F69",
";.	c #2B3C42",
">.	c #740707",
",.	c #BE1011",
"'.	c #970B0B",
").	c #B91010",
"!.	c #C41111",
"~.	c #570404",
"{.	c #080D0F",
"].	c #32444B",
"^.	c #465E68",
"/.	c #455D66",
"(.	c #3C525A",
"_.	c #29383F",
":.	c #030506",
"<.	c #5B0606",
"[.	c #540606",
"}.	c #4E0505",
"|.	c #AE0F0F",
"1.	c #B70F0F",
"2.	c #300202",
"3.	c #0E1518",
"4.	c #0C1215",
"5.	c #1D0202",
"6.	c #5E0606",
"7.	c #590606",
"8.	c #550606",
"9.	c #9A0D0D",
"0.	c #BD1010",
"a.	c #910A0A",
"b.	c #570405",
"c.	c #3D0303",
"d.	c #650505",
"e.	c #8B0909",
"f.	c #AB0E0E",
"g.	c #2F0303",
"h.	c #5C0606",
"i.	c #570606",
"j.	c #820B0B",
"k.	c #B20F0F",
"l.	c #410304",
"m.	c #610707",
"n.	c #4F0505",
"o.	c #A80E0E",
"p.	c #A50E0E",
"q.	c #3A0303",
"r.	c #6B0808",
"s.	c #510506",
"t.	c #520506",
"u.	c #930C0D",
"v.	c #940C0D",
"w.	c #430404",
"x.	c #690808",
"y.	c #580606",
"z.	c #7A0A0A",
"A.	c #C01111",
"B.	c #7E0B0B",
"C.	c #360303",
"D.	c #610708",
"E.	c #980D0D",
"F.	c #A90E0F",
"G.	c #600708",
"H.	c #5E0607",
"I.	c #C31111",
"J.	c #B61010",
"K.	c #7B0A0A",
"L.	c #1A0202",
"M.	c #5E0707",
"N.	c #530606",
"O.	c #810B0B",
"P.	c #9C0D0D",
"Q.	c #AB0E0F",
"R.	c #B50F10",
"S.	c #750A0A",
"T.	c #4B0505",
"U.	c #660808",
"V.	c #6B0809",
"W.	c #0C0101",
"X.	c #620708",
"Y.	c #680808",
"Z.	c #290202",
"`.	c #200202",
" +	c #490405",
".+	c #510505",
"++	c #5D0606",
"@+	c #650808",
"#+	c #6A0808",
"$+	c #760A0A",
"%+	c #400404",
"&+	c #380303",
"*+	c #700909",
"=+	c #180202",
"-+	c #230202",
";+	c #740A0A",
">+	c #6F0909",
",+	c #730A0A",
"'+	c #650708",
")+	c #460404",
"!+	c #450404",
"~+	c #060101",
"{+	c #090101",
"]+	c #050101",
"^+	c #480404",
"/+	c #340303",
"                                                                                  ",
"                                                                                  ",
"                                                                                  ",
"                                                                                  ",
"                                                                                  ",
"                                                                                  ",
"                                                                                  ",
"                                . . . . . . . . . . .                             ",
"                              . . . . . . . + + . . . . .                         ",
"                            . . @ # $ % % % % % & * = . . .                       ",
"                          . . - & % % % % % % % % % ; > . . .                     ",
"                          . . , % % % % % % % % % % % ' ) . .                     ",
"                        . . ! ~ % % % { ] ^ / ( _ . . : ) . . .                   ",
"                        . . < % % % [ } . . | 1 2 3 4 4 5 6 . . .                 ",
"                        . . 7 % % % 8 . | 9 0 a b c d e f g h . .                 ",
"                        . . i % % % j . k l a a c m m m m m n o . .               ",
"                    . . . _ p % % % q . r s a a t u d v w x y a z .               ",
"              . . . . . . A B % % % C . D E F a a a a a a a a G H . .             ",
"              . . I J K . L M % % % N . r D O P Q a a R S T U V W . .             ",
"            . . X Y % Z . `  .% % % ... +.D D D D @.#.D D D D D $.. .             ",
"            . . K % % %.. `  .~ % % &.. *.=.D D D D D D D D -.;.. .               ",
"            . . >.,.% '.. `  .).% % !.~.. {.].^.D D D /.(._.:.. . .               ",
"            . . <. .M [.. }. .|.% % % 1.2.. . . 3.4.. . . . 5.. .                 ",
"            . . 6. . .7.. 8. .9.% % % % 0.a.b._ . . c.d.e.f.!.g..                 ",
"            . . 6. . .h.. i. .j.% % % % % % % % !.% % % % % ~ X .                 ",
"            . . 6. . .[.. [. . .0.% % % % % % % % % % % % % k.l.. .               ",
"            . . m. . .n.. 7. . .o.% % % % % % % % % % % % % p.q.. .               ",
"            . . r. . .s.. t. . .u.% % % % % % % % % % % % % v.w.. .               ",
"            . . x. . .y.. t. . .z.A.% % % % % % % % % % % !.B.C.. .               ",
"            . . D. . .6.. h. . . .E.% % % % % % % % % % % F. .C.. .               ",
"            . . G. . .H.. h. . . . .9.I.% % % % % % % % J.K. .L..                 ",
"            . . 6. . .M.. N. . . . . .O.P.Q.R.).).).|.v. . .S.. .                 ",
"              . T. . .U.. }. . . . . . . . . . . . . . . . .V.. .                 ",
"              . W.X. .Y.. `  . . . . . . . . . . . . . . . .< . .                 ",
"              . . . Z.`..  + . . . . . .i.T..+++@+#+X.m.$+ .%+. .                 ",
"                . . . . . &+ . . . . .*+. . . . . . ) x. . .=+. .                 ",
"                      . . -+ . . . . .r.. . . . . .+ . . .;+. .                   ",
"                        . .  . . . . .r.. .   . . 6. . . .*+. .                   ",
"                        . . >+ . . . .r.. .   . . 6. . . .,+. .                   ",
"                        . . x. . . . .'+. .   . . )+$+ . .U.. .                   ",
"                        . . .+ . . . .!+. .     . . ~+W.{+. .                     ",
"                        . . ]+^+n.n./+. .         . . . . .                       ",
"                          . . . . . . . .                                         ",
"                              . . . .                                             ",
"                                                                                  ",
"                                                                                  ",
"                                                                                  ",
"                                                                                  ",
"                                                                                  ",
"                                                                                  "};
