/* XPM */
static char * among5_xpm[] = {
"50 50 214 2",
"  	c #BCB700",
". 	c #010101",
"+ 	c #020101",
"@ 	c #030101",
"# 	c #5A0404",
"$ 	c #A40D0D",
"% 	c #BE1010",
"& 	c #C51111",
"* 	c #BC1010",
"= 	c #A20D0D",
"- 	c #640505",
"; 	c #7C0808",
"> 	c #C31111",
", 	c #390303",
"' 	c #5F0505",
") 	c #B90F0F",
"! 	c #4B0303",
"~ 	c #AB0E0E",
"{ 	c #A60D0D",
"] 	c #860909",
"^ 	c #690606",
"/ 	c #350303",
"( 	c #080202",
"_ 	c #000101",
": 	c #230303",
"< 	c #370303",
"[ 	c #3F0404",
"} 	c #B91010",
"| 	c #BA1010",
"1 	c #4F0404",
"2 	c #080E10",
"3 	c #3E545E",
"4 	c #49616C",
"5 	c #577380",
"6 	c #62818F",
"7 	c #638392",
"8 	c #5E7C8A",
"9 	c #415761",
"0 	c #020202",
"a 	c #5A0606",
"b 	c #750707",
"c 	c #3D525B",
"d 	c #83ACBF",
"e 	c #98C7DB",
"f 	c #98C7DC",
"g 	c #B7D6E5",
"h 	c #D8E8F0",
"i 	c #DBEAF1",
"j 	c #D9E9F0",
"k 	c #DBEAF0",
"l 	c #CFE3EC",
"m 	c #ACCAD8",
"n 	c #55717D",
"o 	c #680808",
"p 	c #BC1011",
"q 	c #4C0404",
"r 	c #1B272C",
"s 	c #668795",
"t 	c #A7CEE0",
"u 	c #FCFEFD",
"v 	c #C9E0EA",
"w 	c #638492",
"x 	c #730A0A",
"y 	c #320303",
"z 	c #33464D",
"A 	c #4B6670",
"B 	c #8DB9CC",
"C 	c #C6DEE9",
"D 	c #E7F1F5",
"E 	c #EDF5F7",
"F 	c #ECF4F7",
"G 	c #EBF4F7",
"H 	c #BFDBE7",
"I 	c #4B646F",
"J 	c #270202",
"K 	c #770A0A",
"L 	c #394E56",
"M 	c #4A646E",
"N 	c #536F7B",
"O 	c #89B4C7",
"P 	c #93C1D5",
"Q 	c #5C7A87",
"R 	c #3A0303",
"S 	c #800808",
"T 	c #3F0303",
"U 	c #3D0304",
"V 	c #B81010",
"W 	c #430303",
"X 	c #7195A4",
"Y 	c #8DB8CC",
"Z 	c #97C6DB",
"` 	c #8FBBCF",
" .	c #7EA5B7",
"..	c #6B8D9C",
"+.	c #4D6872",
"@.	c #394E57",
"#.	c #2B0202",
"$.	c #6A0606",
"%.	c #4D0505",
"&.	c #B60F10",
"*.	c #710707",
"=.	c #11191D",
"-.	c #465F68",
";.	c #4C6670",
">.	c #577480",
",.	c #4E6974",
"'.	c #2E3F46",
").	c #790707",
"!.	c #520506",
"~.	c #AC0F0F",
"{.	c #AA0D0E",
"].	c #1F2C31",
"^.	c #476069",
"/.	c #425A63",
"(.	c #29393F",
"_.	c #7C0809",
":.	c #BE1011",
"<.	c #320203",
"[.	c #510505",
"}.	c #A20E0E",
"|.	c #7E0808",
"1.	c #10181B",
"2.	c #34474F",
"3.	c #445C66",
"4.	c #455D66",
"5.	c #3F565E",
"6.	c #31444B",
"7.	c #192529",
"8.	c #620708",
"9.	c #7A0A0B",
"0.	c #530606",
"a.	c #920C0C",
"b.	c #C21111",
"c.	c #6F0707",
"d.	c #060A0C",
"e.	c #131C20",
"f.	c #040506",
"g.	c #1F0202",
"h.	c #6A0808",
"i.	c #0C0102",
"j.	c #780A0A",
"k.	c #C11111",
"l.	c #870909",
"m.	c #530404",
"n.	c #040101",
"o.	c #480303",
"p.	c #610505",
"q.	c #830808",
"r.	c #A10C0C",
"s.	c #6B0808",
"t.	c #140202",
"u.	c #5B0607",
"v.	c #AD0F0F",
"w.	c #C41111",
"x.	c #B40F10",
"y.	c #060101",
"z.	c #590606",
"A.	c #940C0D",
"B.	c #A50E0F",
"C.	c #6D0909",
"D.	c #5D0606",
"E.	c #8E0C0C",
"F.	c #120102",
"G.	c #750A0A",
"H.	c #580606",
"I.	c #080101",
"J.	c #570606",
"K.	c #8C0C0C",
"L.	c #150202",
"M.	c #230203",
"N.	c #5E0606",
"O.	c #840B0B",
"P.	c #6C0909",
"Q.	c #360303",
"R.	c #960D0D",
"S.	c #BF1011",
"T.	c #C01011",
"U.	c #710909",
"V.	c #690808",
"W.	c #7A0A0A",
"X.	c #A30E0E",
"Y.	c #B61010",
"Z.	c #AB0F0F",
"`.	c #950C0D",
" +	c #790A0A",
".+	c #550606",
"++	c #5B0606",
"@+	c #130101",
"#+	c #5F0707",
"$+	c #760A0A",
"%+	c #460404",
"&+	c #1D0202",
"*+	c #480404",
"=+	c #490405",
"-+	c #4C0505",
";+	c #600707",
">+	c #5E0707",
",+	c #740A0A",
"'+	c #720909",
")+	c #070101",
"!+	c #3E0304",
"~+	c #620707",
"{+	c #540606",
"]+	c #6F0909",
"^+	c #340303",
"/+	c #4E0505",
"(+	c #160102",
"_+	c #640708",
":+	c #420404",
"<+	c #3D0404",
"[+	c #0B0101",
"}+	c #0C0101",
"|+	c #3C0303",
"1+	c #500506",
"                                                                                                    ",
"                                                                                                    ",
"                                                                                                    ",
"                                                                                                    ",
"                                                                                                    ",
"                                                                                                    ",
"                                                                                                    ",
"                                      . . . . . . . . . . . . . .                                   ",
"                                    . . . . . . . . . + @ . . . . . .                               ",
"                                  . . . # $ % & & & & & & * = - . . . .                             ",
"                                . . . ; > & & & & & & & & & & & $ , . . .                           ",
"                                . . ' > & & & & & & & & & & & & & ) ! . . .                         ",
"                              . . @ ~ & & & & > { ] ^ # / ( _ . . : < . . . .                       ",
"                              . . [ } & & & | 1 . . . 2 3 4 5 6 7 7 8 9 0 . . .                     ",
"                              . . a | & & & b . . c d e f f g h i j k l m n . . .                   ",
"                            . . . o p & & & q . r s f f f t u u u u u u u v w . .                   ",
"                          . . . . x | & & & y . z A B f f f C i k D E F G H f I . .                 ",
"                  . . . . . . . J K } & & & J . L M N O f f f f f f f f f f P Q . .                 ",
"                . . . R ; S T . U K V & & & W . z M M M X Y f f f Z ` O  ...+.@.. .                 ",
"                . . #.| & & $.. %.K &.& & & *.. =.-.M M M M ;.>.,.M M M M M M '.. .                 ",
"                . . ).& & & # . !.K ~.& & & {.. . ].^.M M M M M M M M M M /.(.. . .                 ",
"                . . _.:.& > <.. [.K }.& & & & |.. . 1.2.3.M M M M 4.5.6.7.. . . .                   ",
"                . . 8.K 9.K @ . 0.K a.& & & & b.c.. . . . d.e.f.. . . . . g.. . .                   ",
"                . . h.K K K i.. a K j.k.& & & & & ~ l.m.n.. . . o.p.q.r.} * . .                     ",
"                . . s.K K K t.. u.K K v.& & & & & & & & & w.w.& & & & & & x.. . .                   ",
"                . . s.K K K y.. z.K K A.& & & & & & & & & & & & & & & & & B.. . .                   ",
"                . . C.K K K . . D.K K j.k.& & & & & & & & & & & & & & & & E.F.. .                   ",
"                . . G.K K K + . H.K K K v.& & & & & & & & & & & & & & & k.j./ . .                   ",
"                . . x K K K I.. J.K K K K.& & & & & & & & & & & & & & & v.K L.. .                   ",
"                . . C.K K K M.. N.K K K K }.& & & & & & & & & & & & & k.O.K + . .                   ",
"                . . P.K K K Q.. N.K K K K K R.S.& & & & & & & & & & T.E.K U.. . .                   ",
"                . . V.K K K Q.. H.K K K K K K W.A.X.v.Y.} } } V Z.`. +K K o . . .                   ",
"                . . .+K K K [ . 0.K K K K K K K K K K K K K K K K K K K K ++. .                     ",
"                . . @+#+$+K %+. %.K K K K K K K K K K K K K K K K K K K K [ . .                     ",
"                  . . . &+y . . *+K K K K K K K h.=+-+[.D.;+h.V.;+>+,+K '+)+. .                     ",
"                    . . . . . . < K K K K K K K !+. . . . . . . < o K K ~+. . .                     ",
"                            . . L.K K K K K K K / . . . . . . P.K K K K {+. . .                     ",
"                            . . . ]+K K K K K K ^+. .   . . + K K K K K /+. .                       ",
"                              . . h.K K K K K K / . .   . . + K K K K K !.. .                       ",
"                              . . #+K K K K K K (+. .     . . _+K K K ,+:+. .                       ",
"                              . . <+K K K K K z.. . .     . . . )+[+}+. . .                         ",
"                              . . . |+%.1+/+< . . .         . . . . . . .                           ",
"                                . . . . . . . . .                                                   ",
"                                    . . . . .                                                       ",
"                                                                                                    ",
"                                                                                                    ",
"                                                                                                    ",
"                                                                                                    ",
"                                                                                                    ",
"                                                                                                    "};
