/* XPM */
static char * among6_xpm[] = {
"60 60 258 2",
"  	c None",
". 	c #010101",
"+ 	c #1A0202",
"@ 	c #5A0404",
"# 	c #5E0505",
"$ 	c #5F0505",
"% 	c #600505",
"& 	c #610505",
"* 	c #360303",
"= 	c #570404",
"- 	c #A50D0D",
"; 	c #C31111",
"> 	c #C51111",
", 	c #B20F0F",
"' 	c #840909",
") 	c #250202",
"! 	c #750707",
"~ 	c #C21111",
"{ 	c #BA1010",
"] 	c #6D0606",
"^ 	c #660606",
"/ 	c #890A0A",
"( 	c #130101",
"_ 	c #B70F0F",
": 	c #BF1010",
"< 	c #B00E0E",
"[ 	c #9F0C0C",
"} 	c #990B0B",
"| 	c #8B0A0A",
"1 	c #850909",
"2 	c #830808",
"3 	c #820808",
"4 	c #8E0B0B",
"5 	c #580505",
"6 	c #610607",
"7 	c #C41111",
"8 	c #810A0B",
"9 	c #7A0808",
"0 	c #354750",
"a 	c #526E7A",
"b 	c #638391",
"c 	c #6C8E9D",
"d 	c #779CAD",
"e 	c #789EAF",
"f 	c #7CA2B4",
"g 	c #7FA6B8",
"h 	c #7DA5B6",
"i 	c #789EAE",
"j 	c #678897",
"k 	c #415761",
"l 	c #8C0C0C",
"m 	c #AB0E0E",
"n 	c #31434B",
"o 	c #85AEC1",
"p 	c #98C7DC",
"q 	c #B8D7E5",
"r 	c #DCEBF1",
"s 	c #E6F1F5",
"t 	c #E0EDF2",
"u 	c #DAE9F0",
"v 	c #C3DCE8",
"w 	c #86ACBD",
"x 	c #2B3B42",
"y 	c #400404",
"z 	c #8E0C0C",
"A 	c #980C0C",
"B 	c #1A252A",
"C 	c #5A7884",
"D 	c #ABD0E1",
"E 	c #FCFEFD",
"F 	c #EEF5F8",
"G 	c #93BDD0",
"H 	c #364952",
"I 	c #520506",
"J 	c #920B0B",
"K 	c #354850",
"L 	c #4A646E",
"M 	c #8BB7CA",
"N 	c #99C8DC",
"O 	c #DBEAF1",
"P 	c #F7FBFB",
"Q 	c #F3F9FA",
"R 	c #F6FAFB",
"S 	c #A1CBDF",
"T 	c #8DB9CC",
"U 	c #600707",
"V 	c #8B0C0C",
"W 	c #3D535C",
"X 	c #587682",
"Y 	c #90BDD0",
"Z 	c #ADD1E2",
"` 	c #B3D4E3",
" .	c #B1D3E3",
"..	c #A8CFE0",
"+.	c #9CC9DD",
"@.	c #5D7B88",
"#.	c #6C0909",
"$.	c #880B0C",
"%.	c #8D0A0A",
"&.	c #3E545D",
"*.	c #516C77",
"=.	c #83ADBF",
"-.	c #8DB9CD",
";.	c #7094A4",
">.	c #384D54",
",.	c #410303",
"'.	c #930B0B",
").	c #9D0C0C",
"!.	c #9C0C0C",
"~.	c #3F0303",
"{.	c #750A0A",
"].	c #840B0C",
"^.	c #33454D",
"/.	c #62828F",
"(.	c #7FA8B9",
"_.	c #94C2D6",
":.	c #94C1D6",
"<.	c #89B4C7",
"[.	c #80A9BB",
"}.	c #789FAF",
"|.	c #6C8F9E",
"1.	c #374B52",
"2.	c #B10F0F",
"3.	c #430303",
"4.	c #280203",
"5.	c #770A0A",
"6.	c #7E0B0B",
"7.	c #0C1315",
"8.	c #455D66",
"9.	c #49636D",
"0.	c #223035",
"a.	c #590505",
"b.	c #350303",
"c.	c #5C0505",
"d.	c #192428",
"e.	c #465F68",
"f.	c #405760",
"g.	c #202D32",
"h.	c #7B0808",
"i.	c #C11111",
"j.	c #BE1011",
"k.	c #340303",
"l.	c #B30F0F",
"m.	c #200202",
"n.	c #111A1D",
"o.	c #384D55",
"p.	c #48626B",
"q.	c #4A636D",
"r.	c #33464E",
"s.	c #5C0607",
"t.	c #9D0D0E",
"u.	c #9F0D0E",
"v.	c #890B0B",
"w.	c #330303",
"x.	c #AE0F0F",
"y.	c #050101",
"z.	c #090F11",
"A.	c #27363C",
"B.	c #31444B",
"C.	c #354951",
"D.	c #32444C",
"E.	c #2E4046",
"F.	c #2B3B41",
"G.	c #0F1619",
"H.	c #610707",
"I.	c #6B0809",
"J.	c #370303",
"K.	c #9A0D0D",
"L.	c #A30D0D",
"M.	c #490404",
"N.	c #550404",
"O.	c #650808",
"P.	c #6F0909",
"Q.	c #390304",
"R.	c #910A0A",
"S.	c #6F0707",
"T.	c #5D0505",
"U.	c #590404",
"V.	c #670606",
"W.	c #930A0B",
"X.	c #A80D0D",
"Y.	c #BE1010",
"Z.	c #8C0A0A",
"`.	c #6F090A",
" +	c #380303",
".+	c #B30F10",
"++	c #7C0909",
"@+	c #680808",
"#+	c #680708",
"$+	c #6B0808",
"%+	c #3A0304",
"&+	c #7D0A0B",
"*+	c #B40F10",
"=+	c #620707",
"-+	c #70090A",
";+	c #A30E0E",
">+	c #690808",
",+	c #760A0A",
"'+	c #6C0809",
")+	c #990D0D",
"!+	c #6E0909",
"~+	c #7A0A0A",
"{+	c #BC1010",
"]+	c #730A0A",
"^+	c #420404",
"/+	c #C01011",
"(+	c #8D0C0C",
"_+	c #5E0707",
":+	c #040101",
"<+	c #440404",
"[+	c #830B0B",
"}+	c #950C0D",
"|+	c #540606",
"1+	c #6A0808",
"2+	c #0C0102",
"3+	c #900C0C",
"4+	c #AA0E0E",
"5+	c #B71010",
"6+	c #B81010",
"7+	c #A10E0E",
"8+	c #820B0B",
"9+	c #480404",
"0+	c #5B0607",
"a+	c #1E0202",
"b+	c #790A0B",
"c+	c #810B0C",
"d+	c #890B0C",
"e+	c #8A0C0C",
"f+	c #320303",
"g+	c #73090A",
"h+	c #0F0101",
"i+	c #640708",
"j+	c #740A0A",
"k+	c #280202",
"l+	c #020101",
"m+	c #430404",
"n+	c #4E0505",
"o+	c #570606",
"p+	c #620708",
"q+	c #630708",
"r+	c #5E0606",
"s+	c #5C0707",
"t+	c #700909",
"u+	c #2B0203",
"v+	c #0F0102",
"w+	c #6D0909",
"x+	c #580606",
"y+	c #4D0505",
"z+	c #030101",
"A+	c #2C0203",
"B+	c #4A0505",
"C+	c #510505",
"D+	c #490405",
"E+	c #180202",
"F+	c #150202",
"G+	c #170202",
"H+	c #5D0707",
"I+	c #390303",
"                                                                                                                        ",
"                                                                                                                        ",
"                                                                                                                        ",
"                                                                                                                        ",
"                                                                                                                        ",
"                                                                                                                        ",
"                                                                                                                        ",
"                                                                                                                        ",
"                                                  . . . . . . . . . . . .                                               ",
"                                            . . . . . . . . . . . . . . . . . .                                         ",
"                                          . . . . . + @ # # $ $ % & $ * . . . . . .                                     ",
"                                        . . . . = - ; > > > > > > > > > , ' ) . . . . .                                 ",
"                                        . . . ! ~ > > > > > > > > > > > > > { ] . . . . .                               ",
"                                      . . . ^ ; > > > > > > > > > > > > > > > > / . . . . .                             ",
"                                    . . . ( _ > > > > > > > : < [ } | 1 2 3 3 1 4 5 . . . .                             ",
"                                    . . . 6 > > > > > 7 } 5 . . . . . . . . . . . . . . . . .                           ",
"                                    . . . 8 > > > > > 9 . . . . 0 a b c d e f g h i j k . . . .                         ",
"                                    . . ) l > > > > m . . . n o p p p p q r s s r t u v w x . . .                       ",
"                                  . . . y z > > > > A . . B C p p p p D E E E E E E E E F G H . . .                     ",
"                                . . . . I l > > > > J . . K L M p p p N O P Q R E E E E P S T B . .                     ",
"                        . . . . . . . . U V > > > > | . . W L X Y p p p p p p p Z `  ...+.p p @.. . .                   ",
"                    . . . . . . . . . . #.$.> > > > %.. . &.L L *.=.p p p p p p p p p p p -.;.>.. . .                   ",
"                    . . . ,.'.).!.~.. . {.].> > > > } . . ^.L L L L /.(.-._.:.-.<.[.}.|.X L L 1.. . .                   ",
"                  . . . . 2.> > > 3.. 4.5.6.> > > > , . . 7.8.L L L L L L L L L L L L L L L 9.0.. . .                   ",
"                  . . . a.> > > > . . b.5.5.; > > > > c.. . d.e.L L L L L L L L L L L L L f.g.. . .                     ",
"                  . . . h.i.> > j.. . k.5.5.{ > > > > l.m.. . n.o.p.L L L L L L L q.f.r.d.. . . . .                     ",
"                  . . . s.$.t.u.v.. . w.5.5.x.> > > > > [ y.. . . z.A.B.C.D.E.F.g.G.. . . . . . .                       ",
"                  . . . H.5.5.5.I.. . J.5.5.K.> > > > > > L.M.. . . . . . . . . . . . N.' % . . .                       ",
"                  . . . O.5.5.5.P.. . Q.5.5.6.7 > > > > > > > , R.S.T.N.N.U.V.3 W.X.Y.> > Z.. . .                       ",
"                  . . . O.5.5.5.`.. .  +5.5.5..+> > > > > > > > > > > > > > > > > > > > > ++. . .                       ",
"                  . . . @+5.5.5.#.. .  +5.5.5.t.> > > > > > > > > > > > > > > > > > > > i.#+. . .                       ",
"                  . . . $+5.5.5.$+. . %+5.5.5.&+7 > > > > > > > > > > > > > > > > > > > *+=+. . .                       ",
"                  . . . -+5.5.5.$+. .  +5.5.5.5..+> > > > > > > > > > > > > > > > > > > ;+>+. . .                       ",
"                  . . . ,+5.5.5.'+. . J.5.5.5.5.)+> > > > > > > > > > > > > > > > > > > V >+. . .                       ",
"                  . . . P.5.5.5.!+. .  +5.5.5.5.~+{+> > > > > > > > > > > > > > > > > { 5.U . . .                       ",
"                  . . . #.5.5.5.]+. . ^+5.5.5.5.5.$./+> > > > > > > > > > > > > > > ; (+5._+. . .                       ",
"                  . . . '+5.5.5.5.:+. <+5.5.5.5.5.5.[+.+> > > > > > > > > > > > > ; }+5.5.|+. . .                       ",
"                  . . . 1+5.5.5.5.2+.  +5.5.5.5.5.5.5.5.3+4+5+i.> > > > > > > 6+7+8+5.5.5.9+. . .                       ",
"                  . . . 0+5.5.5.5.a+. J.5.5.5.5.5.5.5.5.5.5.5.5.b+c+d+V V e+~+5.5.5.5.5.5.b.. . .                       ",
"                    . . w.{.5.5.5.b.. f+5.5.5.5.5.5.5.5.5.5.5.5.5.5.5.5.5.5.5.5.5.5.5.5.g+h+. .                         ",
"                    . . . k.i+{.j+k+. + 5.5.5.5.5.5.5.5.5.5.5.5.5.5.5.5.5.5.5.5.5.5.5.5.U . . .                         ",
"                      . . . . . . . . l+5.5.5.5.5.5.5.5.5.i+J.* m+n+o+_+p+q+_+r+s+{.5.5.y . . .                         ",
"                        . . . . . . . . t+5.5.5.5.5.5.5.5.u+. . . . . . . . . y t+5.5.,+v+. . .                         ",
"                            . . . . . . O.5.5.5.5.5.5.5.5.l+. . . . . . . n+!+5.5.5.5.w+. . .                           ",
"                                  . . . x+5.5.5.5.5.5.5.5.l+. .     . . . $+5.5.5.5.5.$+. . .                           ",
"                                  . . . y+5.5.5.5.5.5.5.5.l+. .     . . . #.5.5.5.5.5.@+. . .                           ",
"                                  . . . y 5.5.5.5.5.5.5.5.z+. .     . . . $+5.5.5.5.5.$+. . .                           ",
"                                    . . A+5.5.5.5.5.5.5.#.. . .     . . . B+{.5.5.5.{.C+. . .                           ",
"                                    . . . >+5.5.5.5.5.5.D+. . .       . . . l+E+F+G+l+. . .                             ",
"                                    . . . k+_+$+$+1+H+I+. . . .         . . . . . . . . .                               ",
"                                      . . . . . . . . . . . .                                                           ",
"                                        . . . . . . . . . .                                                             ",
"                                                .                                                                       ",
"                                                                                                                        ",
"                                                                                                                        ",
"                                                                                                                        ",
"                                                                                                                        ",
"                                                                                                                        ",
"                                                                                                                        ",
"                                                                                                                        "};
