/* XPM */
static char * neon_1_xpm[] = {
"60 60 54 1",
" 	c #53674C",
".	c #74776E",
"+	c #3E584B",
"@	c #493467",
"#	c #538BEC",
"$	c #1A4DB1",
"%	c #D9D966",
"&	c #B76293",
"*	c #CD91AF",
"=	c #A6D4FE",
"-	c #8A98CF",
";	c #6B0C1C",
">	c #8D2753",
",	c #FFFFFF",
"'	c #CE3611",
")	c #DD5818",
"!	c #EEACAF",
"~	c #B0CBF2",
"{	c #253153",
"]	c #933A9F",
"^	c #DB9129",
"/	c #8C6C45",
"(	c #FBD16E",
"_	c #B4B1CF",
":	c #4FA9F8",
"<	c #455688",
"[	c #ABA4D3",
"}	c #345693",
"|	c #CECBEE",
"1	c #7B98CA",
"2	c #9239A2",
"3	c #B37DBA",
"4	c #98CDFC",
"5	c #5756A4",
"6	c #587AB8",
"7	c #7271C8",
"8	c #6F37A1",
"9	c #DF5DE7",
"0	c #9998D8",
"a	c #96E5DF",
"b	c #04D7FC",
"c	c #8986F1",
"d	c #FE00E6",
"e	c #5D84C4",
"f	c #E17249",
"g	c #659AF4",
"h	c #5C94F4",
"i	c #365B97",
"j	c #99959D",
"k	c #723AA2",
"l	c #505590",
"m	c #817EB1",
"n	c #C9C5D6",
"o	c #C5ECFF",
"    .   + +. . ++++      + + +    +    + +++       +  .     ",
"     .  + .+ .++   +   @@@+++ ++ + @  +++++ +++    +   .    ",
"........+.. +.+++ ++ +  @#@+. ++  @$@@+..++.++++      ++++ +",
"                       @%#@@      @%$%@                     ",
"                      @@%#$#@@@@@@@@@$@++++ +++.. + .+      ",
"    + + + .++++  ++ + @#$#$@#########@$@       +++ . +.     ",
"   + ++ + ++++ + ++  ++@##@$$#$$##$##$@@              +++ . ",
"++ + ++   ++++  +++    @#@#######$#####@. .++              +",
"+++  + + ++++           @%%########$####@              .    ",
"  +    + .     +++    +@#@%%$####$$#$$##@ +++++++ +      .+ ",
"+++ ++                @###%#####&&&&&&$##@       +  ++      ",
"                      @##$#####&*****&&##@      +           ",
"        +  + ++..   .@##$###$$&*******&$@+ ++.++      . ..  ",
"+.. ..       ++++  ++@%%#####&****=*=*&$#@ +..++ +++        ",
"                    @%%@$#$#$@@@*****@@@#@    +++++.   .    ",
"+  +++ ++++  ++ .+ + @@###$#&@-;@***@;>@#@ ..      + ..     ",
"                      @#$%$#&*,')!~~,')%$@                  ",
"  +++. +.+  ++ ..  ++@#$%%$#$*,')!!!,')%$@ ++++++           ",
"++          ++ ++  ++@$@@%$#$@!!!!!!!!*%@        .++        ",
"                      @ @%$$#@&*!!!!!*%@                .   ",
"   .+ ++++  + .. + ++ ++@ #$#%@{****%@@+++ ++++            +",
"                        @ @%%%$]]]]],@          +.++ +++    ",
"        ++   +++ + ++ ++@ #@{{,]],,{{{@@+ +++++++++++ + .+  ",
"...+ ++.                  @!@{,],,{{{@!!@                   ",
"+++. .+ +.  ++. ++ ++ ++  @^^/{({^^^^@!_@ . .++++++++       ",
"+ ++ +++++ @++. +  ++ +@@@!^(/:{<{((^@!!_@@           +  .  ",
" +++ .+ ++ !@++ ++ ++ @{{!!@::{<[[{(^/@!!{{@.+.++.+.+ +++.  ",
" +++  +.++@@%@@ @@ +@@@{{!!@}}}}{[|{[<@!{{{@+++.+.+.+ +..+ .",
" .++ +.++ @!}%%@%%@@111{{{!:}}}}}}[[[<@{{{@@.++++.+ + ++    ",
"           @@}}}%%11}1}}{{@:}}}}}}::::@{{@}}@++.+++ +     + ",
".+        @!!!}}%%}@@@@@@@ +2332322322@@@}}}1@        + . + ",
".++.       @@@@@%%@++  + + ^@333333233@ .@@}}@@@      +...+ ",
"+     .+. +   +@@@   @@@@@@@^@4:5@@@^^@@   @}%%%@ +++   +++ ",
" +++ + +  +   .+++ +@::6@{4444:::7@@^^@{@++@%%%@%@+++ +     ",
" ++  .+++ + + +++++ @::::44:::::8887777{{@@@%}}%}@@@        ",
".+ .   ++ ++  +++.+ @:::::::{{{{{{{8887890a@@}}}}%@!@ +  . .",
"                     @:^b^{{{{{@ @{{{{8890aa@@!@+}!@+ ++.+  ",
"                      @{^{{{{{{@  @{{{{^90cad@@! @!++       ",
"                      @{e{{{{{@   @{{{{{90c^ddd       +    +",
" +++ .++++ +        ++@e{{f{{{@ +++@{{{{^0c^@@@++ +.      . ",
"                      @e{{{{{@     @{f{{6@@@   +..+.+ +     ",
"++     .++ .   .  ++ @{e{{{{@+ + + +@{{{6@+++++             ",
"                    @{e}}}1@        @}}16@       ++++       ",
"++.+. ..++ . ++ + +@{{}}}}@ + ++++  @}}}{{@+++++++    + ++  ",
" ++++ . ++ + +++ +@{}}}}@@ +  ..+.  @}}}{{{@++    ++ + +++++",
" ++++ +++++  +.+ +@{g}g@+   . ..+. +.@}@{h{@  +   ++  ...   ",
"     .  +++  +++  @{gg@++  + +++++    @{h_{@++....++  +     ",
"                 @{_i@             ++. @hhh@++...++         ",
"++      +.+      @{_@                   @j_{@        +++.  +",
" +++.. .         @_i@  +  + +++   ++++  @__}@ +  +  +   .   ",
"   +++ ++.++ ++ @!i@                     @{{@            .. ",
"                @!!@            . ++.+ + @!!@+.+ .+ .+ +++  ",
"++   ++ +..+  +@!kkk++ +  +..  ++   ++ ++kkkk@+ ++ +  ++  + ",
"              @@!k,,@                   @k,,k@              ",
" +...    ... +@lmmkk@ +  +    ++ ++++   @kkkkl@    +       .",
"  ++ +..  ++ +@nmmmm@@+ +. +   + +++. .+@mmmml@++ .. .++    ",
"  +++.+++    +@nmmm,,m@ .+ + +     ++ +@mm,,m@@++   ++.    +",
"    ++....     @n,,,,,@oooooooooooooooo@n,,,,n@  +++.   .   ",
"     +   ..  . @@@@@@@@ooooooooooooooooo@@@@@@++ +   .      ",
"      +++.+     .                .++      +..+    .     ..  "};
