/* XPM */
static char * neon_1_xpm[] = {
"60 60 52 1",
" 	c None",
".	c #493467",
"+	c #538BEC",
"@	c #1A4DB1",
"#	c #D9D966",
"$	c #B76293",
"%	c #CD91AF",
"&	c #A6D4FE",
"*	c #8A98CF",
"=	c #6B0C1C",
"-	c #8D2753",
";	c #FFFFFF",
">	c #CE3611",
",	c #DD5818",
"'	c #EEACAF",
")	c #B0CBF2",
"!	c #253153",
"~	c #933A9F",
"{	c #DB9129",
"]	c #8C6C45",
"^	c #FBD16E",
"/	c #B4B1CF",
"(	c #4FA9F8",
"_	c #455688",
":	c #ABA4D3",
"<	c #345693",
"[	c #CECBEE",
"}	c #7B98CA",
"|	c #9239A2",
"1	c #B37DBA",
"2	c #98CDFC",
"3	c #5756A4",
"4	c #587AB8",
"5	c #7271C8",
"6	c #6F37A1",
"7	c #DF5DE7",
"8	c #9998D8",
"9	c #96E5DF",
"0	c #04D7FC",
"a	c #8986F1",
"b	c #FE00E6",
"c	c #5D84C4",
"d	c #E17249",
"e	c #659AF4",
"f	c #5C94F4",
"g	c #365B97",
"h	c #99959D",
"i	c #723AA2",
"j	c #505590",
"k	c #817EB1",
"l	c #C9C5D6",
"m	c #C5ECFF",
"                                                            ",
"                       ...         .                        ",
"                        .+.       .@..                      ",
"                       .#+..      .#@#.                     ",
"                      ..#+@+.........@.                     ",
"                      .+@+@.+++++++++.@.                    ",
"                       .++.@@+@@++@++@..                    ",
"                       .+.+++++++@+++++.                    ",
"                        .##++++++++@++++.                   ",
"                       .+.##@++++@@+@@++.                   ",
"                      .+++#+++++$$$$$$@++.                  ",
"                      .++@+++++$%%%%%$$++.                  ",
"                     .++@+++@@$%%%%%%%$@.                   ",
"                     .##+++++$%%%%&%&%$@+.                  ",
"                    .##.@+@+@...%%%%%...+.                  ",
"                     ..+++@+$.*=.%%%.=-.+.                  ",
"                      .+@#@+$%;>,'));>,#@.                  ",
"                     .+@##@+@%;>,''';>,#@.                  ",
"                     .@..#@+@.''''''''%#.                   ",
"                      . .#@@+.$%'''''%#.                    ",
"                        . +@+#.!%%%%#..                     ",
"                        . .###@~~~~~;.                      ",
"                        . +.!!;~~;;!!!..                    ",
"                          .'.!;~;;!!!.''.                   ",
"                          .{{]!^!{{{{.'/.                   ",
"           .           ...'{^](!_!^^{.''/..                 ",
"           '.         .!!''.((!_::!^{].''!!.                ",
"          ..#.. ..  ...!!''.<<<<!:[!:_.'!!!.                ",
"          .'<##.##..}}}!!!'(<<<<<<:::_.!!!..                ",
"           ..<<<##}}<}<<!!.(<<<<<<((((.!!.<<.               ",
"          .'''<<##<.......  |11|1||1||...<<<}.              ",
"           .....##.        {.111111|11.  ..<<...            ",
"               ...   .......{.2(3...{{..   .<###.           ",
"                    .((4.!2222(((5..{{.!.  .###.#.          ",
"                    .((((22(((((6665555!!...#<<#<...        ",
"                    .(((((((!!!!!!!66656789..<<<<#.'.       ",
"                     .({0{!!!!!. .!!!!667899..'. <'.        ",
"                      .!{!!!!!!.  .!!!!{78a9b..' .'         ",
"                      .!c!!!!!.   .!!!!!78a{bbb             ",
"                      .c!!d!!!.    .!!!!{8a{...             ",
"                      .c!!!!!.     .!d!!4...                ",
"                     .!c!!!!.       .!!!4.                  ",
"                    .!c<<<}.        .<<}4.                  ",
"                   .!!<<<<.         .<<<!!.                 ",
"                  .!<<<<..          .<<<!!!.                ",
"                  .!e<e.             .<.!f!.                ",
"                  .!ee.               .!f/!.                ",
"                 .!/g.                 .fff.                ",
"                 .!/.                   .h/!.               ",
"                 ./g.                   .//<.               ",
"                .'g.                     .!!.               ",
"                .''.                     .''.               ",
"               .'iii                     iiii.              ",
"              ..'i;;.                   .i;;i.              ",
"              .jkkii.                   .iiiij.             ",
"              .lkkkk..                  .kkkkj.             ",
"              .lkkk;;k.                .kk;;k..             ",
"               .l;;;;;.mmmmmmmmmmmmmmmm.l;;;;l.             ",
"               ........mmmmmmmmmmmmmmmmm......              ",
"                                                            "};
