/* XPM */
static char * neon_1_xpm[] = {
"60 60 51 1",
" 	c #FFFFFF",
".	c #493467",
"+	c #538BEC",
"@	c #1A4DB1",
"#	c #D9D966",
"$	c #B76293",
"%	c #CD91AF",
"&	c #A6D4FE",
"*	c #8A98CF",
"=	c #6B0C1C",
"-	c #8D2753",
";	c #CE3611",
">	c #DD5818",
",	c #EEACAF",
"'	c #B0CBF2",
")	c #253153",
"!	c #933A9F",
"~	c #DB9129",
"{	c #8C6C45",
"]	c #FBD16E",
"^	c #B4B1CF",
"/	c #4FA9F8",
"(	c #455688",
"_	c #ABA4D3",
":	c #345693",
"<	c #CECBEE",
"[	c #7B98CA",
"}	c #9239A2",
"|	c #B37DBA",
"1	c #98CDFC",
"2	c #5756A4",
"3	c #587AB8",
"4	c #7271C8",
"5	c #6F37A1",
"6	c #DF5DE7",
"7	c #9998D8",
"8	c #96E5DF",
"9	c #04D7FC",
"0	c #8986F1",
"a	c #FE00E6",
"b	c #5D84C4",
"c	c #E17249",
"d	c #659AF4",
"e	c #5C94F4",
"f	c #365B97",
"g	c #99959D",
"h	c #723AA2",
"i	c #505590",
"j	c #817EB1",
"k	c #C9C5D6",
"l	c #C5ECFF",
"                                                            ",
"                       ...         .                        ",
"                        .+.       .@..                      ",
"                       .#+..      .#@#.                     ",
"                      ..#+@+.........@.                     ",
"                      .+@+@.+++++++++.@.                    ",
"                       .++.@@+@@++@++@..                    ",
"                       .+.+++++++@+++++.                    ",
"                        .##++++++++@++++.                   ",
"                       .+.##@++++@@+@@++.                   ",
"                      .+++#+++++$$$$$$@++.                  ",
"                      .++@+++++$%%%%%$$++.                  ",
"                     .++@+++@@$%%%%%%%$@.                   ",
"                     .##+++++$%%%%&%&%$@+.                  ",
"                    .##.@+@+@...%%%%%...+.                  ",
"                     ..+++@+$.*=.%%%.=-.+.                  ",
"                      .+@#@+$% ;>,'' ;>#@.                  ",
"                     .+@##@+@% ;>,,, ;>#@.                  ",
"                     .@..#@+@.,,,,,,,,%#.                   ",
"                      . .#@@+.$%,,,,,%#.                    ",
"                        . +@+#.)%%%%#..                     ",
"                        . .###@!!!!! .                      ",
"                        . +.)) !!  )))..                    ",
"                          .,.) !  ))).,,.                   ",
"                          .~~{)])~~~~.,^.                   ",
"           .           ...,~]{/)()]]~.,,^..                 ",
"           ,.         .)),,.//)(__)]~{.,,)).                ",
"          ..#.. ..  ...)),,.::::)_<)_(.,))).                ",
"          .,:##.##..[[[))),/::::::___(.)))..                ",
"           ..:::##[[:[::))./::::::////.)).::.               ",
"          .,,,::##:.......  }||}|}}|}}...:::[.              ",
"           .....##.        ~.||||||}||.  ..::...            ",
"               ...   .......~.1/2...~~..   .:###.           ",
"                    .//3.)1111///4..~~.).  .###.#.          ",
"                    .////11/////5554444))...#::#:...        ",
"                    .///////)))))))55545678..::::#.,.       ",
"                     ./~9~))))). .))))556788..,. :,.        ",
"                      .)~)))))).  .))))~6708a.., .,         ",
"                      .)b))))).   .)))))670~aaa             ",
"                      .b))c))).    .))))~70~...             ",
"                      .b))))).     .)c))3...                ",
"                     .)b)))).       .)))3.                  ",
"                    .)b:::[.        .::[3.                  ",
"                   .))::::.         .:::)).                 ",
"                  .)::::..          .:::))).                ",
"                  .)d:d.             .:.)e).                ",
"                  .)dd.               .)e^).                ",
"                 .)^f.                 .eee.                ",
"                 .)^.                   .g^).               ",
"                 .^f.                   .^^:.               ",
"                .,f.                     .)).               ",
"                .,,.                     .,,.               ",
"               .,hhh                     hhhh.              ",
"              ..,h  .                   .h  h.              ",
"              .ijjhh.                   .hhhhi.             ",
"              .kjjjj..                  .jjjji.             ",
"              .kjjj  j.                .jj  j..             ",
"               .k     .llllllllllllllll.k    k.             ",
"               ........lllllllllllllllll......              ",
"                                                            "};
