/* XPM */
static char * orb_xpm[] = {
"60 60 3 1",
" 	c None",
".	c #000000",
"+	c #FFFFFF",
"                                                            ",
"                                                            ",
"                                                            ",
"                                                            ",
"                                                            ",
"                                                            ",
"                                                            ",
"                                                            ",
"                                                            ",
"                                                            ",
"                                                            ",
"                                                            ",
"                                                            ",
"                                                            ",
"                                                            ",
"                                                            ",
"                          ........                          ",
"                        ............                        ",
"                      ................                      ",
"                     ..................                     ",
"                    .........+..........                    ",
"                   ..........+...........                   ",
"                  ...+.......+........+...                  ",
"                 .....+......++......+.....                 ",
"                 ......++....++....++......                 ",
"                .......++++.++++.++++.......                ",
"                ........++++++++++++........                ",
"               .........++++++++++++.........               ",
"               ..........++++++++++..........               ",
"               .........++++++++++++.........               ",
"               .......+++++++++++++++++++....               ",
"               ....+++++++++++++++++++.......               ",
"               .........++++++++++++.........               ",
"               ..........++++++++++..........               ",
"               .........++++++++++++.........               ",
"                ........++++++++++++........                ",
"                .......++++.++++.++++.......                ",
"                 ......++....++....++......                 ",
"                 .....+......++......+.....                 ",
"                  ...+........+.......+...                  ",
"                   ...........+..........                   ",
"                    ..........+.........                    ",
"                     ..................                     ",
"                      ................                      ",
"                        ............                        ",
"                          ........                          ",
"                                                            ",
"                                                            ",
"                                                            ",
"                                                            ",
"                                                            ",
"                                                            ",
"                                                            ",
"                                                            ",
"                                                            ",
"                                                            ",
"                                                            ",
"                                                            ",
"                                                            ",
"                                                            "};
