/* XPM */
static char * orb_xpm[] = {
"60 60 2 1",
" 	c #FFFFFF",
".	c #000000",
"                                                            ",
"                                                            ",
"                                                            ",
"                                                            ",
"                                                            ",
"                                                            ",
"                                                            ",
"                                                            ",
"                                                            ",
"                                                            ",
"                                                            ",
"                                                            ",
"                                                            ",
"                                                            ",
"                                                            ",
"                                                            ",
"                          ........                          ",
"                        ............                        ",
"                      ................                      ",
"                     ..................                     ",
"                    ......... ..........                    ",
"                   .......... ...........                   ",
"                  ... ....... ........ ...                  ",
"                 ..... ......  ...... .....                 ",
"                 ......  ....  ....  ......                 ",
"                .......    .    .    .......                ",
"                ........            ........                ",
"               .........            .........               ",
"               ..........          ..........               ",
"               .........            .........               ",
"               .......                   ....               ",
"               ....                   .......               ",
"               .........            .........               ",
"               ..........          ..........               ",
"               .........            .........               ",
"                ........            ........                ",
"                .......    .    .    .......                ",
"                 ......  ....  ....  ......                 ",
"                 ..... ......  ...... .....                 ",
"                  ... ........ ....... ...                  ",
"                   ........... ..........                   ",
"                    .......... .........                    ",
"                     ..................                     ",
"                      ................                      ",
"                        ............                        ",
"                          ........                          ",
"                                                            ",
"                                                            ",
"                                                            ",
"                                                            ",
"                                                            ",
"                                                            ",
"                                                            ",
"                                                            ",
"                                                            ",
"                                                            ",
"                                                            ",
"                                                            ",
"                                                            ",
"                                                            "};
