/* XPM */
static char * spike_xpm[] = {
"60 60 7 1",
" 	c #FFFFFF",
".	c #060B17",
"+	c #484348",
"@	c #665960",
"#	c #1B3A48",
"$	c #63ACAD",
"%	c #D3E9FB",
"                                                            ",
"                                                            ",
"                                                            ",
"                                                            ",
"                                                            ",
"                                                            ",
"                                                            ",
"                                                            ",
"                                                            ",
"                         .......                            ",
"                        .+++++++.                           ",
"                        ..........                          ",
"                       ..        ..                         ",
"                      ....      ....                        ",
"                      .@@@......@@@@.                       ",
"                     .@@@@@@@@@@@@@@.                       ",
"                    .#@@@@@@@@@@@@@##..                     ",
"                   .$$#############$$$.                     ",
"                   .$$$$%%%%%%%%%$$$$$.                     ",
"                   ..$$$$%%%%%%%%%$$$.                      ",
"                    .##############..                       ",
"                    .##$$%%% ###$$$.                        ",
"                     .$$$%%%  #$$$$.                        ",
"                     .$$$$%%% #$$$$.                        ",
"                     .$$$$%%% #$$$$.                        ",
"                     .$$$$$%%%#$$$$.                        ",
"                     .$$$$$%%%#$$$$.                        ",
"                     .$$$$$%%%#$$$$.                        ",
"                     .$$$$$%%%#$$$$.                        ",
"                     .##$$$%%%#$$##.                        ",
"                     .$$#########$$.                        ",
"                     .$$$$$%%%#$$$$.                        ",
"                     .$$$$$%%%#$$$$.                        ",
"                     .$$$$$%%%#$$$$.                        ",
"                     .$$$$$%%%#$$$$.                        ",
"                     .$$$$$$%%#$$$$.                        ",
"                  ....$$$$$$%%#$$$#......                   ",
"                 .@@@@#$$$$$$%#$$#@@@$$$.                   ",
"                .@@@@@@#$$$$$###$#@@@@@$.                   ",
"                .+@@@@@$###########@@@@$.                   ",
"                .++++$$@@@@@@@@@@@@@@@@$.                   ",
"                .++++$@@@@@@@@@@@@@@@@@$.                   ",
"                .++++$++++@@@@@@@$$$.@+$.                   ",
"                .++++$+++++++@@@@@@$.++$.                   ",
"                .++++$++++++++++@@@$.+++.                   ",
"                .+++$$$++++++++++@@$.+++.                   ",
"                ..+++$++++++++++++++.+++.                   ",
"                  ...+++++++++++++++.++.                    ",
"                     ...++++++++++++.+.                     ",
"                        ....++++++++..                      ",
"                            ...+++++.                       ",
"                               .....                        ",
"                                                            ",
"                                                            ",
"                                                            ",
"                                                            ",
"                                                            ",
"                                                            ",
"                                                            ",
"                                                            "};
